#define 1542304328699_width 16
#define 1542304328699_height 11
static char 1542304328699_bits[] = {
  0x1F, 0xF8, 0x21, 0x84, 0x4D, 0x82, 0x9D, 0x81, 0x3D, 0x80, 0x7D, 0x80, 
  0x3D, 0x80, 0x9D, 0x81, 0x4D, 0x82, 0x21, 0x84, 0x1F, 0xF8, };
