#define 1542304294160_width 11
#define 1542304294160_height 16
static char 1542304294160_bits[] = {
  0xFF, 0x07, 0x01, 0x04, 0x05, 0x05, 0x8D, 0x05, 0xD9, 0x04, 0x72, 0x02, 
  0x24, 0x01, 0x88, 0x00, 0x88, 0x00, 0x04, 0x01, 0x02, 0x02, 0x21, 0x04, 
  0x71, 0x04, 0xF9, 0x04, 0x01, 0x04, 0xFF, 0x07, };
