#define 1542304337383_width 19
#define 1542304337383_height 19
static char 1542304337383_bits[] = {
  0x80, 0x00, 0x00, 0xC0, 0x01, 0x00, 0x60, 0x03, 0x00, 0x30, 0x06, 0x00, 
  0x98, 0x04, 0x00, 0xCC, 0x05, 0x00, 0xE6, 0x05, 0x00, 0xF3, 0x05, 0x00, 
  0xE6, 0xFD, 0x00, 0x0C, 0x80, 0x01, 0xF8, 0x01, 0x03, 0x00, 0x01, 0x06, 
  0x00, 0x01, 0x03, 0x00, 0x81, 0x01, 0x00, 0xC1, 0x00, 0x00, 0x63, 0x00, 
  0x00, 0x36, 0x00, 0x00, 0x1C, 0x00, 0x00, 0x08, 0x00, };
