#define 1542304275373_width 11
#define 1542304275373_height 16
static char 1542304275373_bits[] = {
  0xFF, 0x07, 0x01, 0x04, 0xDD, 0x05, 0xFD, 0x05, 0xF9, 0x04, 0x72, 0x02, 
  0x24, 0x01, 0x88, 0x00, 0x88, 0x00, 0x04, 0x01, 0x02, 0x02, 0x01, 0x04, 
  0x01, 0x04, 0x21, 0x04, 0x01, 0x04, 0xFF, 0x07, };
