#define 1542304303803_width 11
#define 1542304303803_height 16
static char 1542304303803_bits[] = {
  0xFF, 0x07, 0x01, 0x04, 0x01, 0x04, 0x05, 0x05, 0x89, 0x04, 0x52, 0x02, 
  0x24, 0x01, 0x88, 0x00, 0x88, 0x00, 0x04, 0x01, 0x22, 0x02, 0x71, 0x04, 
  0xF9, 0x04, 0xFD, 0x05, 0x01, 0x04, 0xFF, 0x07, };
