#define 1542304215762_width 26
#define 1542304215762_height 26
static char 1542304215762_bits[] = {
  0x00, 0xFE, 0x01, 0x00, 0x80, 0xFF, 0x07, 0x00, 0xE0, 0x01, 0x1E, 0x00, 
  0x70, 0x00, 0x38, 0x00, 0x38, 0x00, 0x70, 0x00, 0x1C, 0x78, 0xE0, 0x00, 
  0x0C, 0x78, 0xC0, 0x00, 0x06, 0x78, 0x80, 0x01, 0x06, 0x78, 0x80, 0x01, 
  0x07, 0x00, 0x80, 0x03, 0x03, 0x78, 0x00, 0x03, 0x03, 0x78, 0x00, 0x03, 
  0x03, 0x78, 0x00, 0x03, 0x03, 0x78, 0x00, 0x03, 0x03, 0x78, 0x00, 0x03, 
  0x03, 0x78, 0x00, 0x03, 0x07, 0x78, 0x80, 0x03, 0x06, 0x78, 0x80, 0x01, 
  0x06, 0x78, 0x80, 0x01, 0x0C, 0x78, 0xC0, 0x00, 0x1C, 0x78, 0xE0, 0x00, 
  0x38, 0x00, 0x70, 0x00, 0x70, 0x00, 0x38, 0x00, 0xE0, 0x01, 0x1E, 0x00, 
  0x80, 0xFF, 0x07, 0x00, 0x00, 0xFE, 0x01, 0x00, };
