#define 1541777856829_width 128
#define 1541777856829_height 64
static char 1541777856829_bits[] = {
  0x00, 0x00, 0x00, 0x00, 0x00, 0x00, 0x00, 0x00, 0x00, 0x00, 0x00, 0x00, 
  0x00, 0x00, 0x00, 0x00, 0x00, 0x00, 0x00, 0x00, 0x00, 0x00, 0x00, 0x00, 
  0x00, 0x00, 0x00, 0x00, 0x00, 0x00, 0x00, 0x00, 0x00, 0x00, 0x00, 0x00, 
  0x00, 0x00, 0x00, 0x00, 0x00, 0x00, 0x00, 0x00, 0x00, 0x1E, 0x00, 0x00, 
  0x00, 0x00, 0x00, 0x00, 0x00, 0x00, 0x00, 0x00, 0x00, 0x00, 0x00, 0x00, 
  0x00, 0x3F, 0x00, 0x00, 0x80, 0x7F, 0x00, 0x00, 0x00, 0x00, 0x00, 0x18, 
  0x00, 0x00, 0x00, 0x00, 0xC0, 0xF3, 0x00, 0x00, 0x80, 0xFF, 0x00, 0x00, 
  0x00, 0x00, 0x60, 0x18, 0x00, 0x00, 0x00, 0x00, 0xE0, 0xE1, 0x03, 0x00, 
  0x80, 0xC1, 0x01, 0x00, 0x00, 0x00, 0x60, 0x00, 0x00, 0x00, 0x00, 0x00, 
  0x78, 0x80, 0x07, 0x00, 0x80, 0x81, 0x01, 0x00, 0x00, 0x00, 0x60, 0x00, 
  0x00, 0x00, 0x00, 0x00, 0x3E, 0x00, 0x1E, 0x00, 0x80, 0x81, 0xC1, 0x87, 
  0x3D, 0xF0, 0xF1, 0x19, 0x3E, 0xEC, 0x00, 0x80, 0x0F, 0x00, 0x78, 0x00, 
  0x80, 0xC1, 0xE1, 0x8F, 0x7F, 0xF8, 0xF3, 0x19, 0x7F, 0xFC, 0x00, 0xC0, 
  0xC3, 0x7F, 0xF0, 0x01, 0x80, 0xFF, 0x60, 0x8C, 0x63, 0x18, 0x63, 0x18, 
  0x63, 0x1C, 0x00, 0xF0, 0xC0, 0x47, 0xC0, 0x03, 0x80, 0x7F, 0x30, 0x98, 
  0xC1, 0x0C, 0x66, 0x98, 0xC1, 0x0C, 0x00, 0x3C, 0xC0, 0x47, 0x80, 0x0F, 
  0x80, 0x31, 0xF0, 0x9F, 0xC1, 0xFC, 0x67, 0x98, 0xFF, 0x0C, 0x00, 0x1C, 
  0xC0, 0x47, 0x00, 0x1E, 0x80, 0x61, 0xF0, 0x9F, 0xC1, 0xFC, 0x67, 0x98, 
  0xFF, 0x0C, 0x00, 0x0E, 0xC0, 0x47, 0x00, 0x18, 0x80, 0xE1, 0x30, 0x80, 
  0xC1, 0x0C, 0x60, 0x98, 0x01, 0x0C, 0x00, 0x06, 0xC0, 0x47, 0x00, 0x18, 
  0x80, 0xC1, 0x30, 0x80, 0xC1, 0x0C, 0x60, 0x98, 0x01, 0x0C, 0x00, 0x06, 
  0xC0, 0x47, 0x00, 0x18, 0x80, 0xC1, 0x61, 0x98, 0x63, 0x18, 0x66, 0x18, 
  0xC3, 0x0C, 0x00, 0x06, 0xC0, 0x47, 0x00, 0x18, 0x80, 0x81, 0xE1, 0x8F, 
  0x7F, 0xF8, 0xE3, 0x19, 0x7F, 0x0C, 0x00, 0x06, 0xC0, 0x47, 0x00, 0x18, 
  0x80, 0x81, 0xC3, 0x87, 0x3D, 0xF0, 0xC1, 0x19, 0x3E, 0x0C, 0x00, 0x06, 
  0xC0, 0x47, 0x00, 0x18, 0x00, 0x00, 0x00, 0x80, 0x01, 0x00, 0x00, 0x00, 
  0x00, 0x00, 0x00, 0x06, 0xC0, 0x47, 0x00, 0x18, 0x00, 0x00, 0x00, 0x80, 
  0x01, 0x00, 0x00, 0x00, 0x00, 0x00, 0x00, 0x06, 0xE0, 0xC7, 0x00, 0x18, 
  0x00, 0x00, 0x00, 0x80, 0x01, 0x00, 0x00, 0x00, 0x00, 0x00, 0x00, 0x06, 
  0xF8, 0x07, 0x01, 0x18, 0x00, 0x00, 0x00, 0x80, 0x01, 0x00, 0x00, 0x00, 
  0x00, 0x00, 0x00, 0x06, 0xFE, 0x07, 0x06, 0x18, 0x00, 0x00, 0x00, 0x00, 
  0x00, 0x00, 0x00, 0x00, 0x00, 0x00, 0x00, 0x86, 0xFF, 0x01, 0x18, 0x18, 
  0x00, 0x00, 0x00, 0x00, 0x00, 0x00, 0x00, 0x00, 0x00, 0x00, 0x00, 0xC6, 
  0x7F, 0x00, 0x60, 0x18, 0x80, 0x20, 0x00, 0x10, 0x00, 0xC0, 0x81, 0x03, 
  0x07, 0x00, 0x00, 0xE6, 0x1F, 0x00, 0x80, 0x18, 0x00, 0x11, 0x00, 0x00, 
  0x00, 0x20, 0x42, 0x84, 0x08, 0x00, 0x00, 0xC6, 0x0F, 0x04, 0x00, 0x19, 
  0x00, 0x11, 0x63, 0x17, 0xE3, 0x00, 0x42, 0x84, 0x08, 0x00, 0x00, 0x86, 
  0x03, 0x0A, 0x80, 0x18, 0x00, 0x91, 0xA4, 0x90, 0x24, 0x01, 0x41, 0x84, 
  0x08, 0x00, 0x00, 0x06, 0x01, 0x11, 0x40, 0x18, 0x00, 0x8A, 0x27, 0x93, 
  0x24, 0x81, 0x40, 0x84, 0x08, 0x00, 0x00, 0x06, 0x82, 0x20, 0x20, 0x18, 
  0x00, 0x8A, 0x20, 0x94, 0x24, 0x41, 0x40, 0x84, 0x08, 0x00, 0x00, 0x0E, 
  0x44, 0x40, 0x10, 0x1C, 0x00, 0x04, 0xA7, 0x13, 0x23, 0xE1, 0x93, 0x23, 
  0x07, 0x00, 0x00, 0x0C, 0x28, 0x80, 0x08, 0x1E, 0x00, 0x00, 0x00, 0x00, 
  0x00, 0x00, 0x00, 0x00, 0x00, 0x00, 0x00, 0x7C, 0x10, 0x00, 0x85, 0x0F, 
  0x00, 0x00, 0x00, 0x00, 0x00, 0x00, 0x00, 0x00, 0x00, 0x00, 0x00, 0xF0, 
  0x01, 0x00, 0xC2, 0x07, 0xF0, 0xFF, 0xFF, 0xFF, 0xFF, 0xFF, 0xFF, 0xFF, 
  0xFF, 0xFF, 0x07, 0xE0, 0x03, 0x00, 0xF0, 0x01, 0x00, 0x00, 0x00, 0x00, 
  0x00, 0x00, 0x00, 0x00, 0x00, 0x00, 0x00, 0x80, 0x0F, 0x00, 0x7C, 0x00, 
  0x00, 0x00, 0x00, 0x00, 0x00, 0x00, 0x00, 0x00, 0x00, 0x00, 0x00, 0x00, 
  0x3E, 0x00, 0x1E, 0x00, 0x00, 0x00, 0x00, 0x00, 0x00, 0x00, 0x00, 0x00, 
  0x00, 0x00, 0x00, 0x00, 0x78, 0x80, 0x0F, 0x00, 0x00, 0x00, 0x00, 0x00, 
  0x00, 0x00, 0x00, 0x00, 0x00, 0x00, 0x00, 0x00, 0xF0, 0xE1, 0x03, 0x00, 
  0x00, 0x00, 0x00, 0x00, 0x00, 0x00, 0x00, 0x00, 0x00, 0x00, 0x00, 0x00, 
  0xC0, 0xFF, 0x00, 0x00, 0x00, 0x00, 0x00, 0x00, 0x00, 0x00, 0x00, 0x00, 
  0x00, 0x00, 0x00, 0x00, 0x00, 0x3F, 0x00, 0x00, 0x00, 0x00, 0x00, 0x00, 
  0x00, 0x00, 0x00, 0x00, 0x00, 0x00, 0x00, 0x00, 0x00, 0x1C, 0x00, 0x00, 
  0x00, 0x00, 0x00, 0x00, 0x00, 0x00, 0x00, 0x00, 0x00, 0x00, 0x00, 0x00, 
  0x00, 0x00, 0x00, 0x00, 0x00, 0x00, 0x00, 0x00, 0x00, 0x00, 0x00, 0x00, 
  0x00, 0x00, 0x00, 0x00, 0x00, 0x00, 0x00, 0x00, 0x00, 0x00, 0x00, 0x00, 
  0x00, 0x00, 0x00, 0x00, 0x00, 0x00, 0x00, 0x00, 0x00, 0x00, 0x00, 0x00, 
  0x00, 0x00, 0x00, 0x00, 0x00, 0x00, 0x00, 0x00, 0x00, 0x00, 0x00, 0x00, 
  0x00, 0x00, 0x00, 0x00, 0x00, 0x00, 0x00, 0x00, 0x00, 0x00, 0x00, 0x00, 
  0x00, 0x00, 0x00, 0x00, 0x00, 0x00, 0x00, 0x00, 0x00, 0x00, 0x00, 0x00, 
  0x00, 0x00, 0x00, 0x00, 0x00, 0x00, 0x00, 0x00, 0x00, 0x00, 0x00, 0x00, 
  0x00, 0x00, 0x00, 0x00, 0x00, 0x00, 0x00, 0x00, 0x00, 0x00, 0x00, 0x00, 
  0x00, 0x00, 0x00, 0x00, 0x00, 0x00, 0x00, 0x00, 0x00, 0x00, 0x00, 0x00, 
  0x00, 0x00, 0x00, 0x00, 0x00, 0x00, 0x00, 0x00, 0x00, 0x00, 0x00, 0x00, 
  0x00, 0x00, 0x00, 0x00, 0x00, 0x00, 0x00, 0x00, 0x00, 0x00, 0x00, 0x00, 
  0x00, 0x00, 0x00, 0x00, 0x00, 0x00, 0x00, 0x00, 0x00, 0x00, 0x00, 0x00, 
  0x00, 0x00, 0x00, 0x00, 0x00, 0x00, 0x00, 0x00, 0x00, 0x00, 0x00, 0x00, 
  0x00, 0x00, 0x00, 0x00, 0x00, 0x00, 0x00, 0x00, 0x00, 0x00, 0x00, 0x00, 
  0x00, 0x00, 0x00, 0x00, 0x00, 0x00, 0x00, 0x00, 0x00, 0x00, 0x00, 0x00, 
  0x00, 0x00, 0x00, 0x00, 0x00, 0x00, 0x00, 0x00, 0x00, 0x00, 0x00, 0x00, 
  0x00, 0x00, 0x00, 0x00, 0x00, 0x00, 0x00, 0x00, 0x00, 0x00, 0x00, 0x00, 
  0x00, 0x00, 0x00, 0x00, 0x00, 0x00, 0x00, 0x00, 0x00, 0x00, 0x00, 0x00, 
  0x00, 0x00, 0x00, 0x00, 0x00, 0x00, 0x00, 0x00, 0x00, 0x00, 0x00, 0x00, 
  0x00, 0x00, 0x00, 0x00, 0x00, 0x00, 0x00, 0x00, 0x00, 0x00, 0x00, 0x00, 
  0x00, 0x00, 0x00, 0x00, 0x00, 0x00, 0x00, 0x00, 0x00, 0x00, 0x00, 0x00, 
  0x00, 0x00, 0x00, 0x00, 0x00, 0x00, 0x00, 0x00, 0x00, 0x00, 0x00, 0x00, 
  0x00, 0x00, 0x00, 0x00, 0x00, 0x00, 0x00, 0x00, 0x00, 0x00, 0x00, 0x00, 
  0x00, 0x00, 0x00, 0x00, 0x00, 0x00, 0x00, 0x00, 0x00, 0x00, 0x00, 0x00, 
  0x00, 0x00, 0x00, 0x00, 0x00, 0x00, 0x00, 0x00, 0x00, 0x00, 0x00, 0x00, 
  0x00, 0x00, 0x00, 0x00, 0x00, 0x00, 0x00, 0x00, 0x00, 0x00, 0x00, 0x00, 
  0x00, 0x00, 0x00, 0x00, 0x00, 0x00, 0x00, 0x00, 0x00, 0x00, 0x00, 0x00, 
  0x00, 0x00, 0x00, 0x00, 0x00, 0x00, 0x00, 0x00, 0x00, 0x00, 0x00, 0x00, 
  0x00, 0x00, 0x00, 0x00, };
